<?xml version="1.0" encoding="UTF-8" standalone="no"?>
<!-- Generator: Adobe Illustrator 19.2.1, SVG Export Plug-In . SVG Version: 6.00 Build 0) -->

<svg
   xmlns:dc="http://purl.org/dc/elements/1.1/"
   xmlns:cc="http://creativecommons.org/ns#"
   xmlns:rdf="http://www.w3.org/1999/02/22-rdf-syntax-ns#"
   xmlns:svg="http://www.w3.org/2000/svg"
   xmlns="http://www.w3.org/2000/svg"
   xmlns:sodipodi="http://sodipodi.sourceforge.net/DTD/sodipodi-0.dtd"
   xmlns:inkscape="http://www.inkscape.org/namespaces/inkscape"
   id="svg4619"
   inkscape:version="0.92.4 5da689c313, 2019-01-14"
   sodipodi:docname="hiking-map-symbols.svg"
   x="0px"
   y="0px"
   width="1868.7853"
   height="270.39383"
   viewBox="0 0 1868.7853 270.39383"
   xml:space="preserve"
   version="1.1"><title
   id="title885">Hiking map symbols</title><metadata
   id="metadata8"><rdf:RDF><cc:Work
       rdf:about=""><dc:format>image/svg+xml</dc:format><dc:type
         rdf:resource="http://purl.org/dc/dcmitype/StillImage" /><dc:title>Hiking map symbols</dc:title><dc:creator><cc:Agent><dc:title>Manuel Reimer &lt;manuel.reimer@gmx.de&gt;</dc:title></cc:Agent></dc:creator><dc:source>Bicycles and People taken from Wikimedia Commons. Everything else is own art.</dc:source><cc:license
         rdf:resource="http://creativecommons.org/publicdomain/zero/1.0/" /></cc:Work><cc:License
       rdf:about="http://creativecommons.org/publicdomain/zero/1.0/"><cc:permits
         rdf:resource="http://creativecommons.org/ns#Reproduction" /><cc:permits
         rdf:resource="http://creativecommons.org/ns#Distribution" /><cc:permits
         rdf:resource="http://creativecommons.org/ns#DerivativeWorks" /></cc:License></rdf:RDF></metadata><defs
   id="defs6" /><sodipodi:namedview
   pagecolor="#ffffff"
   bordercolor="#666666"
   borderopacity="1"
   objecttolerance="10"
   gridtolerance="10"
   guidetolerance="10"
   inkscape:pageopacity="0"
   inkscape:pageshadow="2"
   inkscape:window-width="1786"
   inkscape:window-height="977"
   id="namedview4"
   showgrid="false"
   fit-margin-top="0"
   fit-margin-left="0"
   fit-margin-right="0"
   fit-margin-bottom="0"
   inkscape:zoom="0.51041667"
   inkscape:cx="914.34039"
   inkscape:cy="186.89301"
   inkscape:window-x="508"
   inkscape:window-y="245"
   inkscape:window-maximized="0"
   inkscape:current-layer="g883" />  <path
   d="m 1444.5831,27.76167 c 0,12.03314 9.736,21.77368 21.7388,21.77368 12.0037,0 21.7117,-9.74054 21.7117,-21.77368 C 1488.0336,15.75335 1478.3256,6 1466.3219,6 c -12.0028,0 -21.7388,9.75335 -21.7388,21.76167 z m 38.0276,116.96815 v -16.32205 h 54.3267 c 0,-10.51008 -8.5118,-19.03345 -19.0154,-19.03345 h -35.3113 V 76.73983 c 0,-10.5325 -8.4958,-19.05907 -18.9994,-19.05907 -10.5172,0 -19.0282,8.52657 -19.0282,19.05907 v 73.43602 c 0,10.50047 8.511,19.03025 19.0282,19.03025 h 61.6943 c 2.4924,0 4.6569,1.70483 5.2758,4.10713 l 18.7371,74.64359 c 2.8546,11.38612 14.2058,18.44568 25.6346,15.96891 l -21.9268,-102.02664 c -2.1494,-10.01521 -11.0074,-17.16927 -21.2455,-17.16927 z m 35.189,35.36191 h -11.4599 c 10.5076,28.14298 -3.7542,59.48826 -31.8715,70.00474 -28.0957,10.50688 -59.393,-3.78203 -69.8903,-31.92101 -10.1046,-27.07637 2.7043,-57.33018 29.1416,-68.89727 v -11.68 c -33.9208,12.00831 -51.712,49.29687 -39.7211,83.29507 12.0004,33.98939 49.2444,51.80328 83.1805,39.78535 32.9029,-11.64876 50.8157,-47.16683 40.6207,-80.58688"
   style="fill:#000000;fill-opacity:1;fill-rule:nonzero;stroke:none;stroke-width:0.80018616"
   id="path4364"
   inkscape:connector-curvature="0" /><path
   d="m 1048.642,223.30763 c 25.8661,-3.76966 43.7734,-27.81623 39.9926,-53.674 l -44.9769,18.89281 c -0.7751,0.32557 -1.5839,0.50397 -2.426,0.47511 -3.262,-0.0807 -5.8585,-2.79629 -5.7715,-6.05486 l 1.1973,-53.5173 c -0.5598,0.064 -1.1259,0.13927 -1.6875,0.22237 -25.8668,3.75649 -43.77997,27.80065 -39.99261,53.67401 3.76551,25.86786 27.80611,43.75808 53.66461,39.98186 z m -0.146,-93.67945 -1.0043,44.47298 37.9554,-15.94339 c -6.4527,-15.36149 -20.4908,-26.17132 -36.9511,-28.52959 z m 47.8605,23.94703 10.9094,-4.58257 -57.8309,-61.289586 -0.688,30.030446 c 21.1649,2.49788 39.353,16.18608 47.6095,35.84171 z m 22.0944,-9.96413 36.4731,-104.472956 -96.7238,40.629424 z m 65.723,-5.72907 c 19.1568,17.75495 49.1124,16.64095 66.891,-2.52952 17.7608,-19.17768 16.6392,-49.116576 -2.5455,-66.894075 -15.8521,-14.697564 -39.6524,-16.785176 -57.8091,-5.085559 l 30.1802,35.995318 c 2.0938,2.496546 1.7683,6.223216 -0.7434,8.324566 -2.5063,2.10273 -6.2399,1.77525 -8.3332,-0.72024 l -30.1754,-35.983896 c -17.7817,19.17177 -16.6434,49.118316 2.5354,66.893406 z m -201.32847,43.47853 c -2.70693,-32.56346 21.51557,-61.13903 54.08007,-63.83177 l 0.9493,-42.057782 -8.6669,-9.208433 -12.2808,5.158647 -4.5826,-10.909394 46.3608,-19.474145 c 1.2583,-0.528522 2.7144,-0.1086 3.5203,0.980612 0.98,1.297136 0.6867,3.16825 -0.6157,4.150457 l -20.7621,15.20445 8.6751,9.204948 97.4418,-40.930988 -10.3205,-12.304221 c -3.3301,-3.973249 -8.8657,-5.319835 -13.643,-3.31311 l -17.9309,7.531985 -4.5756,-10.892796 17.9309,-7.531976 c 9.566,-4.018255 20.6205,-1.332738 27.2882,6.584965 l 37.337,44.530195 c 23.2621,-15.820638 54.4498,-13.093407 74.6006,6.550526 23.3982,22.806148 23.8718,60.27535 1.0629,83.65513 -22.8204,23.39923 -60.2702,23.88427 -83.6655,1.08184 -23.4062,-22.83696 -23.8728,-60.274902 -1.0715,-83.684478 l -10.1988,-12.174461 -34.4467,98.623679 c -1.0999,3.15478 -3.5003,5.70443 -6.6017,7.00719 l -22.9014,9.61988 c 0.4288,2.21683 0.7516,4.44031 0.94,6.67256 2.6941,32.56766 -21.5066,61.14872 -54.0823,63.82659 -32.5582,2.70474 -61.13307,-21.51315 -63.84097,-54.0701"
   style="fill:#000000;fill-opacity:1;fill-rule:nonzero;stroke:none;stroke-width:1.12693274"
   id="path5701"
   inkscape:connector-curvature="0" /><path
   d="m 53.910249,30.89696 c 0,11.160184 9.03296,20.209273 20.20922,20.209273 11.15346,0 20.20395,-9.049089 20.20395,-20.209273 0,-11.170934 -9.05049,-20.220023 -20.20395,-20.220023 -11.17626,0 -20.20922,9.049089 -20.20922,20.220023 z m -10.11068,60.113154 v 58.612126 h 40.42929 V 101.14632 L 110.469,141.57024 c 5.31744,8.18369 16.2788,10.51382 24.46248,5.20182 L 85.194989,70.186721 c -7.59102,-11.705763 -23.23274,-15.03299 -34.93856,-7.427133 -0.87744,0.550954 -1.68501,1.165067 -2.47784,1.831587 l -33.93073,28.456119 c -3.42806,2.88647 -5.4061196,7.138216 -5.4061196,11.606326 v 24.74994 c 0,9.78414 7.9095496,17.68966 17.6789096,17.68966 v -41.24901 z m 20.20384,73.845336 47.726071,87.88796 c 5.31743,9.80565 17.59033,13.44329 27.39592,8.10441 L 85.446339,161.98511 c -0.79682,-1.48085 -1.21748,-3.13909 -1.21748,-4.81883 v -2.4887 h -40.42929 v 2.4887 c 0,1.67974 -0.41927,3.33798 -1.2336,4.81883 L 2.4564894,235.89899 c -5.32678,9.82043 -1.70531998,22.08252 8.1057496,27.39453"
   style="fill:#000000;fill-opacity:1;fill-rule:nonzero;stroke:none;stroke-width:1.34379101"
   id="path5039"
   inkscape:connector-curvature="0" /><path
   style="fill:none;fill-rule:evenodd;stroke:#000000;stroke-width:12.51796818;stroke-linecap:butt;stroke-linejoin:miter;stroke-miterlimit:4;stroke-dasharray:none;stroke-opacity:1"
   d="m 954.32816,264.32621 145.22924,-36.76049 80.6829,-47.65249 116.542,-31.31448"
   id="path4768"
   inkscape:connector-curvature="0"
   sodipodi:nodetypes="cccc" /><path
   d="m 609.20128,247.91567 c 28.07126,7.25625 56.71376,-9.6425 63.95501,-37.71 h -54.11126 c -0.9325,0 -1.83625,-0.165 -2.685,-0.55625 -3.30125,-1.48375 -4.79,-5.37625 -3.30125,-8.67125 l 24.21376,-54.215 c -0.6,-0.175 -1.21125,-0.34125 -1.82125,-0.4975 -28.06626,-7.27 -56.71376,9.62375 -63.95501,37.71 -7.26125,28.07125 9.63875,56.69375 37.705,63.94 z m 40.09251,-95.86375 -20.13126,45.04875 h 45.66376 c 0,-18.48125 -9.7125,-35.56625 -25.5325,-45.04875 z m 38.6575,45.04875 h 13.125 l -32.8125,-87.52 -13.60375,30.415 c 20.57125,11.64625 33.29125,33.4575 33.29125,57.105 z m 26.875,-0.69875 82.1775,-91.17125 h -116.3675 z m 69.6725,22.37375 c 11.96375,26.38625 43.07625,38.115 69.4925,26.1475 26.40125,-11.9825 38.115,-43.08125 26.1325,-69.5025 -9.8975,-21.84 -33.34,-34.19875 -56.93375,-30.03375 l 15.40125,49.775 c 1.06875,3.4525 -0.865,7.12375 -4.33625,8.19375 -3.46625,1.07375 -7.14375,-0.865 -8.2125,-4.31625 l -15.40125,-49.76125 c -26.42,11.9675 -38.12,43.08125 -26.1425,69.4975 z M 559.93378,176.75442 c 11.22,-34.46375 48.26625,-53.28125 82.72501,-42.04625 l 19.0375,-42.602496 -4.9075,-13.140004 h -14.775 v -13.125 h 55.77625 c 1.51375,0 2.8225,1.055 3.17875,2.515 0.445,1.7475 -0.65875,3.535 -2.4125,3.98 l -27.76375,6.63 4.9175,13.140004 H 792.94129 L 787.67254,75.08942 c -1.69875,-5.49375 -6.78125,-9.24875 -12.52875,-9.24875 h -21.5725 v -13.105 h 21.5725 c 11.50875,0 21.66,7.495 25.0775,18.45625 l 19.05375,61.5775 c 30.585,-6.18625 61.3075,10 73.47625,38.745 14.13125,33.37375 -1.48,71.895 -34.84875,86.00625 -33.38875,14.12625 -71.895,-1.465 -86.025,-34.83375 -14.12625,-33.40875 1.47875,-71.895 34.8525,-86.04 l -5.2,-16.83125 -77.5925,86.06 c -2.48,2.75375 -6.03,4.33 -9.76125,4.33 h -27.5525 c -0.51375,2.45125 -1.13875,4.86375 -1.905,7.2275 -11.235,34.4625 -48.26125,53.295 -82.72501,42.04 -34.4575,-11.22 -53.27625,-48.26125 -42.06,-82.71875"
   style="fill:#000000;fill-opacity:1;fill-rule:nonzero;stroke:none;stroke-width:1.25"
   id="path5701-1"
   inkscape:connector-curvature="0" /><g
   id="g4901"
   transform="matrix(0.91141032,0,0,0.91141032,1269.9139,430.12192)"><path
     d="m 510.76499,-232.00801 a 36.105534,36.105534 0 0 1 -35.71217,36.10339 36.105534,36.105534 0 0 1 -36.49033,-35.3167 36.105534,36.105534 0 0 1 34.91704,-36.87294 36.105534,36.105534 0 0 1 37.25118,34.51324"
     sodipodi:open="true"
     sodipodi:end="6.2396044"
     sodipodi:start="0"
     sodipodi:ry="36.105534"
     sodipodi:rx="36.105534"
     sodipodi:cy="-232.00801"
     sodipodi:cx="474.65945"
     sodipodi:type="arc"
     id="path4873"
     style="opacity:1;fill:none;fill-opacity:1;stroke:#000000;stroke-width:13.16640759;stroke-linecap:round;stroke-linejoin:bevel;stroke-miterlimit:4;stroke-dasharray:none;stroke-dashoffset:0;stroke-opacity:1" /><path
     d="m 650.49811,-231.53897 a 36.105534,36.105534 0 0 1 -35.71216,36.10339 36.105534,36.105534 0 0 1 -36.49033,-35.3167 36.105534,36.105534 0 0 1 34.91703,-36.87294 36.105534,36.105534 0 0 1 37.25118,34.51324"
     sodipodi:open="true"
     sodipodi:end="6.2396044"
     sodipodi:start="0"
     sodipodi:ry="36.105534"
     sodipodi:rx="36.105534"
     sodipodi:cy="-231.53897"
     sodipodi:cx="614.39258"
     sodipodi:type="arc"
     id="path4873-4"
     style="opacity:1;fill:none;fill-opacity:1;stroke:#000000;stroke-width:13.16640759;stroke-linecap:round;stroke-linejoin:bevel;stroke-miterlimit:4;stroke-dasharray:none;stroke-dashoffset:0;stroke-opacity:1" /><path
     sodipodi:nodetypes="ccccc"
     inkscape:connector-curvature="0"
     id="path4890"
     d="m 614.86149,-232.94582 c 0,0 -32.49283,-38.55878 -37.98115,-85.80925 l -20.6847,-116.75883 c -0.70104,-5.92872 -5.31038,-13.98865 -14.58883,-13.26257 l -34.81428,3.31564"
     style="fill:none;fill-rule:evenodd;stroke:#000000;stroke-width:13.16640759;stroke-linecap:round;stroke-linejoin:miter;stroke-miterlimit:4;stroke-dasharray:none;stroke-opacity:1" /><path
     inkscape:connector-curvature="0"
     id="path4892"
     d="m 475.95703,-233.25954 100.92331,-85.49553"
     style="fill:none;fill-rule:evenodd;stroke:#000000;stroke-width:13.16640759;stroke-linecap:round;stroke-linejoin:miter;stroke-miterlimit:4;stroke-dasharray:none;stroke-opacity:1" /><path
     inkscape:connector-curvature="0"
     id="path4894"
     d="m 538.95429,-389.42643 60.6763,-0.33156"
     style="fill:none;fill-rule:evenodd;stroke:#000000;stroke-width:10.9720068;stroke-linecap:round;stroke-linejoin:miter;stroke-miterlimit:4;stroke-dasharray:none;stroke-opacity:1" /></g><g
   id="g883"
   transform="matrix(1.1015588,0,0,1.1015588,368.74726,-42.500854)"><path
     d="m -22.549076,243.25885 a 25.614315,25.614237 0 0 1 -25.335247,25.61272 25.614315,25.614237 0 0 1 -25.887302,-25.05462 25.614315,25.614237 0 0 1 24.771162,-26.15866 25.614315,25.614237 0 0 1 26.427066,24.48462"
     sodipodi:open="true"
     sodipodi:end="6.2396044"
     sodipodi:start="0"
     sodipodi:ry="25.614237"
     sodipodi:rx="25.614315"
     sodipodi:cy="243.25885"
     sodipodi:cx="-48.163391"
     sodipodi:type="arc"
     id="path848"
     style="opacity:1;fill:none;fill-opacity:1;stroke:#000000;stroke-width:10.89365361;stroke-linecap:round;stroke-linejoin:bevel;stroke-miterlimit:4;stroke-dasharray:none;stroke-dashoffset:0;stroke-opacity:1" /><path
     d="m 88.837357,243.25885 a 25.614307,25.614237 0 0 1 -25.33524,25.61272 25.614307,25.614237 0 0 1 -25.887294,-25.05462 25.614307,25.614237 0 0 1 24.771154,-26.15866 25.614307,25.614237 0 0 1 26.427059,24.48462"
     sodipodi:open="true"
     sodipodi:end="6.2396044"
     sodipodi:start="0"
     sodipodi:ry="25.614237"
     sodipodi:rx="25.614307"
     sodipodi:cy="243.25885"
     sodipodi:cx="63.223049"
     sodipodi:type="arc"
     id="path848-9"
     style="opacity:1;fill:none;fill-opacity:1;stroke:#000000;stroke-width:10.89365361;stroke-linecap:round;stroke-linejoin:bevel;stroke-miterlimit:4;stroke-dasharray:none;stroke-dashoffset:0;stroke-opacity:1" /><path
     transform="scale(-1,1)"
     d="M 83.100586,118.86416 A 88.018013,60.375996 0 0 1 24.480556,175.77295 88.018013,60.375996 0 0 1 -73.297609,156.87919 88.018013,60.375996 0 0 1 -79.99332,87.349376 88.018013,60.375996 0 0 1 13.312117,59.797275 L -4.9174266,118.86416 Z"
     sodipodi:end="4.9210105"
     sodipodi:start="0"
     sodipodi:ry="60.375996"
     sodipodi:rx="88.018013"
     sodipodi:cy="118.86416"
     sodipodi:cx="-4.9174266"
     sodipodi:type="arc"
     id="path865"
     style="opacity:1;fill:none;fill-opacity:1;stroke:#000000;stroke-width:10.89365361;stroke-linecap:round;stroke-linejoin:round;stroke-miterlimit:4;stroke-dasharray:none;stroke-dashoffset:0;stroke-opacity:1" /><path
     sodipodi:nodetypes="cc"
     inkscape:connector-curvature="0"
     id="path867"
     d="M -47.488408,242.52585 41.257023,174.87564"
     style="fill:none;fill-rule:evenodd;stroke:#000000;stroke-width:10.89365361;stroke-linecap:round;stroke-linejoin:miter;stroke-miterlimit:4;stroke-dasharray:none;stroke-opacity:1" /><path
     sodipodi:nodetypes="cc"
     inkscape:connector-curvature="0"
     id="path869"
     d="M 64.358012,243.04021 -30.757705,174.51193"
     style="fill:none;fill-rule:evenodd;stroke:#000000;stroke-width:10.89365361;stroke-linecap:round;stroke-linejoin:miter;stroke-miterlimit:4;stroke-dasharray:none;stroke-opacity:1" /><path
     inkscape:connector-curvature="0"
     id="path871"
     d="M 4.9174315,118.86415 H 91.994692"
     style="fill:none;fill-rule:evenodd;stroke:#000000;stroke-width:10.89365361;stroke-linecap:butt;stroke-linejoin:miter;stroke-miterlimit:4;stroke-dasharray:none;stroke-opacity:1" /><path
     sodipodi:nodetypes="cc"
     inkscape:connector-curvature="0"
     id="path873"
     d="m -112.2339,89.390882 c 16.050278,0 29.061613,13.011328 29.061613,29.061598"
     style="opacity:1;fill:none;fill-opacity:1;stroke:#000000;stroke-width:10.89365361;stroke-linecap:round;stroke-linejoin:round;stroke-miterlimit:4;stroke-dasharray:none;stroke-dashoffset:0;stroke-opacity:1" /></g></svg>