<?xml version="1.0" encoding="UTF-8" standalone="no"?>
<!-- Generator: Adobe Illustrator 19.2.1, SVG Export Plug-In . SVG Version: 6.00 Build 0) -->

<svg
   xmlns:dc="http://purl.org/dc/elements/1.1/"
   xmlns:cc="http://creativecommons.org/ns#"
   xmlns:rdf="http://www.w3.org/1999/02/22-rdf-syntax-ns#"
   xmlns:svg="http://www.w3.org/2000/svg"
   xmlns="http://www.w3.org/2000/svg"
   xmlns:sodipodi="http://sodipodi.sourceforge.net/DTD/sodipodi-0.dtd"
   xmlns:inkscape="http://www.inkscape.org/namespaces/inkscape"
   id="svg4619"
   inkscape:version="0.92.4 5da689c313, 2019-01-14"
   sodipodi:docname="bicycle.svg"
   x="0px"
   y="0px"
   width="1526.6029"
   height="298.49268"
   viewBox="0 0 1526.6029 298.49268"
   xml:space="preserve"
   version="1.1"><metadata
   id="metadata8"><rdf:RDF><cc:Work
       rdf:about=""><dc:format>image/svg+xml</dc:format><dc:type
         rdf:resource="http://purl.org/dc/dcmitype/StillImage" /><dc:title></dc:title></cc:Work></rdf:RDF></metadata><defs
   id="defs6" /><sodipodi:namedview
   pagecolor="#ffffff"
   bordercolor="#666666"
   borderopacity="1"
   objecttolerance="10"
   gridtolerance="10"
   guidetolerance="10"
   inkscape:pageopacity="0"
   inkscape:pageshadow="2"
   inkscape:window-width="1786"
   inkscape:window-height="977"
   id="namedview4"
   showgrid="false"
   fit-margin-top="0"
   fit-margin-left="0"
   fit-margin-right="0"
   fit-margin-bottom="0"
   inkscape:zoom="0.51041667"
   inkscape:cx="534.78569"
   inkscape:cy="77.024229"
   inkscape:window-x="59"
   inkscape:window-y="132"
   inkscape:window-maximized="0"
   inkscape:current-layer="svg4619" />  <path
   d="m 1084.0933,36.146236 c 0,12.03314 9.736,21.77368 21.7388,21.77368 12.0037,0 21.7117,-9.74054 21.7117,-21.77368 0,-12.00832 -9.708,-21.76167 -21.7117,-21.76167 -12.0028,0 -21.7388,9.75335 -21.7388,21.76167 z m 38.0276,116.968154 v -16.32205 h 54.3267 c 0,-10.51008 -8.5118,-19.03345 -19.0154,-19.03345 h -35.3113 V 85.124396 c 0,-10.5325 -8.4958,-19.05907 -18.9994,-19.05907 -10.5172,0 -19.0282,8.52657 -19.0282,19.05907 v 73.436024 c 0,10.50047 8.511,19.03025 19.0282,19.03025 h 61.6943 c 2.4924,0 4.6569,1.70483 5.2758,4.10713 l 18.7371,74.64359 c 2.8546,11.38612 14.2058,18.44568 25.6346,15.96891 l -21.9268,-102.02664 c -2.1494,-10.01521 -11.0074,-17.16927 -21.2455,-17.16927 z m 35.189,35.36191 H 1145.85 c 10.5076,28.14298 -3.7542,59.48826 -31.8715,70.00474 -28.0957,10.50688 -59.393,-3.78203 -69.8903,-31.92101 -10.1046,-27.07637 2.7043,-57.33018 29.1416,-68.89727 v -11.68 c -33.9208,12.00831 -51.712,49.29687 -39.7211,83.29507 12.0004,33.98939 49.2444,51.80328 83.1805,39.78535 32.9029,-11.64876 50.8157,-47.16683 40.6207,-80.58688"
   style="fill:#000000;fill-opacity:1;fill-rule:nonzero;stroke:none;stroke-width:0.80018616"
   id="path4364"
   inkscape:connector-curvature="0" /><path
   d="m 679.02768,246.26441 c 28.69085,-4.18132 48.55371,-30.85391 44.36001,-59.53549 l -49.88862,20.95601 c -0.85972,0.36112 -1.75685,0.559 -2.69089,0.52699 -3.61825,-0.0895 -6.4983,-3.10166 -6.4018,-6.71608 l 1.32803,-59.36169 c -0.62096,0.071 -1.24889,0.15448 -1.87179,0.24665 -28.69159,4.16672 -48.56099,30.83664 -44.36003,59.53551 4.17673,28.69278 30.84272,48.53671 59.52509,44.3481 z m -0.16192,-103.90976 -1.11398,49.32967 42.10034,-17.68449 c -7.15735,-17.03905 -22.72853,-29.02938 -40.98636,-31.64518 z m 53.08714,26.56218 12.10076,-5.08301 -64.14635,-67.982764 -0.76315,33.309944 c 23.47626,2.77067 43.65061,17.95369 52.80874,39.75583 z m 24.50716,-11.05227 40.45621,-115.881994 -107.28661,45.06638 z m 72.90033,-6.35472 c 21.2489,19.69389 54.47577,18.45824 74.19586,-2.80575 19.70046,-21.272 18.45631,-54.480384 -2.82345,-74.199294 -17.58325,-16.30262 -43.98263,-18.61821 -64.12221,-5.64093 l 33.47607,39.926214 c 2.32242,2.76918 1.96137,6.90283 -0.82461,9.23366 -2.77992,2.33236 -6.92127,1.96911 -9.24321,-0.7989 L 826.54809,77.311296 c -19.72354,21.26544 -18.4609,54.482314 2.8123,74.198544 z m -223.31463,48.22663 c -3.00254,-36.11957 23.86518,-67.81575 59.98595,-70.80256 l 1.05295,-46.650734 -9.61334,-10.21404 -13.62202,5.722 -5.083,-12.10076 51.42369,-21.60083 c 1.39562,-0.58624 3.0108,-0.12046 3.90469,1.0877 1.08704,1.43879 0.76166,3.51424 -0.68288,4.60371 l -23.02952,16.86486 9.62254,10.21018 108.08297,-45.40088 -11.44758,-13.64791 c -3.69379,-4.40715 -9.83388,-5.90079 -15.13288,-3.67492 l -19.88906,8.35452 -5.07525,-12.08235 19.88905,-8.3545103 c 10.61065,-4.45707 22.87239,-1.47828001 30.26823,7.30408 l 41.41435,49.3931403 c 25.80246,-17.54834 60.39606,-14.52328 82.74745,7.26588 25.95337,25.29671 26.47872,66.857764 1.1789,92.790744 -25.31246,25.95456 -66.85194,26.49256 -92.80222,1.19998 -25.96229,-25.33088 -26.47986,-66.857264 -1.1885,-92.823294 L 806.73773,53.676496 768.52924,163.07044 c -1.22,3.4993 -3.88252,6.32738 -7.32261,7.77241 l -25.4024,10.67043 c 0.47567,2.45892 0.83374,4.92521 1.0427,7.40124 2.98826,36.12423 -23.85522,67.8265 -59.98836,70.7968 -36.11381,3.00012 -67.8092,-23.8625 -70.81281,-59.97485"
   style="fill:#000000;fill-opacity:1;fill-rule:nonzero;stroke:none;stroke-width:1.25"
   id="path5701"
   inkscape:connector-curvature="0" /><path
   d="m 50.147541,61.502906 c 0,10.38125 8.4025,18.79875 18.7987,18.79875 10.375,0 18.7938,-8.4175 18.7938,-18.79875 0,-10.39125 -8.4188,-18.80875 -18.7938,-18.80875 -10.3962,0 -18.7987,8.4175 -18.7987,18.80875 z m -9.405,55.917504 v 54.52125 h 37.6075 v -45.0925 l 24.408689,37.6025 c 4.9463,7.6125 15.1426,9.78 22.7551,4.83875 L 79.248741,98.050406 c -7.0612,-10.88875 -21.6112,-13.98375 -32.5,-6.90875 -0.8162,0.5125 -1.5674,1.08375 -2.3049,1.70375 l -31.5625,26.470004 c -3.1888003,2.685 -5.0288003,6.64 -5.0288003,10.79625 v 23.0225 c 0,9.10125 7.3575003,16.455 16.4450003,16.455 v -38.37 z m 18.7937,68.69125 44.394989,81.75375 c 4.9463,9.12125 16.3626,12.505 25.4838,7.53875 l -49.932489,-91.9625 c -0.7412,-1.3775 -1.1325,-2.92 -1.1325,-4.4825 v -2.315 h -37.6075 v 2.315 c 0,1.5625 -0.39,3.105 -1.1475,4.4825 l -37.3100003,68.755 c -4.955,9.135 -1.58629995,20.54125 7.54,25.4825"
   style="fill:#000000;fill-opacity:1;fill-rule:nonzero;stroke:none;stroke-width:1.25"
   id="path5039"
   inkscape:connector-curvature="0" /><path
   style="fill:none;fill-rule:evenodd;stroke:#000000;stroke-width:13.88500023;stroke-linecap:butt;stroke-linejoin:miter;stroke-miterlimit:4;stroke-dasharray:none;stroke-opacity:1"
   d="m 574.41424,291.76245 161.08907,-40.77494 89.49393,-52.8564 129.26902,-34.7342"
   id="path4768"
   inkscape:connector-curvature="0"
   sodipodi:nodetypes="cccc" /><path
   d="m 248.71148,262.30024 c 28.07126,7.25625 56.71376,-9.6425 63.95501,-37.71 h -54.11126 c -0.9325,0 -1.83625,-0.165 -2.685,-0.55625 -3.30125,-1.48375 -4.79,-5.37625 -3.30125,-8.67125 l 24.21376,-54.215 c -0.6,-0.175 -1.21125,-0.34125 -1.82125,-0.4975 -28.06626,-7.27 -56.71376,9.62375 -63.95501,37.71 -7.26125,28.07125 9.63875,56.69375 37.705,63.94 z m 40.09251,-95.86375 -20.13126,45.04875 h 45.66376 c 0,-18.48125 -9.7125,-35.56625 -25.5325,-45.04875 z m 38.6575,45.04875 h 13.125 l -32.8125,-87.52 -13.60375,30.415 c 20.57125,11.64625 33.29125,33.4575 33.29125,57.105 z m 26.875,-0.69875 82.1775,-91.17125 h -116.3675 z m 69.6725,22.37375 c 11.96375,26.38625 43.07625,38.115 69.4925,26.1475 26.40125,-11.9825 38.115,-43.08125 26.1325,-69.5025 -9.8975,-21.84 -33.34,-34.19875 -56.93375,-30.03375 l 15.40125,49.775 c 1.06875,3.4525 -0.865,7.12375 -4.33625,8.19375 -3.46625,1.07375 -7.14375,-0.865 -8.2125,-4.31625 l -15.40125,-49.76125 c -26.42,11.9675 -38.12,43.08125 -26.1425,69.4975 z M 199.44398,191.13899 c 11.22,-34.46375 48.26625,-53.28125 82.72501,-42.04625 l 19.0375,-42.6025 -4.9075,-13.140004 h -14.775 v -13.125 h 55.77625 c 1.51375,0 2.8225,1.055 3.17875,2.515 0.445,1.7475 -0.65875,3.535 -2.4125,3.98 l -27.76375,6.63 4.9175,13.140004 h 117.23125 l -5.26875,-17.016254 c -1.69875,-5.49375 -6.78125,-9.24875 -12.52875,-9.24875 h -21.5725 v -13.105 h 21.5725 c 11.50875,0 21.66,7.495 25.0775,18.45625 l 19.05375,61.577504 c 30.585,-6.18625 61.3075,10 73.47625,38.745 14.13125,33.37375 -1.48,71.895 -34.84875,86.00625 -33.38875,14.12625 -71.895,-1.465 -86.025,-34.83375 -14.12625,-33.40875 1.47875,-71.895 34.8525,-86.04 l -5.2,-16.83125 -77.5925,86.06 c -2.48,2.75375 -6.03,4.33 -9.76125,4.33 h -27.5525 c -0.51375,2.45125 -1.13875,4.86375 -1.905,7.2275 -11.235,34.4625 -48.26125,53.295 -82.72501,42.04 -34.4575,-11.22 -53.27625,-48.26125 -42.06,-82.71875"
   style="fill:#000000;fill-opacity:1;fill-rule:nonzero;stroke:none;stroke-width:1.25"
   id="path5701-1"
   inkscape:connector-curvature="0" /><g
   id="g4901"
   transform="translate(871.10434,460.51073)"><path
     d="m 510.76499,-223.23042 a 36.105534,36.105534 0 0 1 -35.71217,36.10339 36.105534,36.105534 0 0 1 -36.49033,-35.3167 36.105534,36.105534 0 0 1 34.91704,-36.87294 36.105534,36.105534 0 0 1 37.25118,34.51323"
     sodipodi:open="true"
     sodipodi:end="6.2396044"
     sodipodi:start="0"
     sodipodi:ry="36.105534"
     sodipodi:rx="36.105534"
     sodipodi:cy="-223.23042"
     sodipodi:cx="474.65945"
     sodipodi:type="arc"
     id="path4873"
     style="opacity:1;fill:none;fill-opacity:1;stroke:#000000;stroke-width:10;stroke-linecap:round;stroke-linejoin:bevel;stroke-miterlimit:4;stroke-dasharray:none;stroke-dashoffset:0;stroke-opacity:1" /><path
     d="m 650.49811,-222.76138 a 36.105534,36.105534 0 0 1 -35.71216,36.10339 36.105534,36.105534 0 0 1 -36.49033,-35.3167 36.105534,36.105534 0 0 1 34.91703,-36.87294 36.105534,36.105534 0 0 1 37.25118,34.51323"
     sodipodi:open="true"
     sodipodi:end="6.2396044"
     sodipodi:start="0"
     sodipodi:ry="36.105534"
     sodipodi:rx="36.105534"
     sodipodi:cy="-222.76138"
     sodipodi:cx="614.39258"
     sodipodi:type="arc"
     id="path4873-4"
     style="opacity:1;fill:none;fill-opacity:1;stroke:#000000;stroke-width:10;stroke-linecap:round;stroke-linejoin:bevel;stroke-miterlimit:4;stroke-dasharray:none;stroke-dashoffset:0;stroke-opacity:1" /><path
     sodipodi:nodetypes="ccccc"
     inkscape:connector-curvature="0"
     id="path4890"
     d="m 614.86149,-224.16822 c 0,0 -32.49283,-38.55878 -37.98115,-85.80925 l -20.6847,-116.75883 c -0.70104,-5.92872 -5.31038,-13.98865 -14.58883,-13.26257 l -34.81428,3.31564"
     style="fill:none;fill-rule:evenodd;stroke:#000000;stroke-width:10;stroke-linecap:round;stroke-linejoin:miter;stroke-miterlimit:4;stroke-dasharray:none;stroke-opacity:1" /><path
     inkscape:connector-curvature="0"
     id="path4892"
     d="m 475.95703,-224.48194 100.92331,-85.49553"
     style="fill:none;fill-rule:evenodd;stroke:#000000;stroke-width:10;stroke-linecap:round;stroke-linejoin:miter;stroke-miterlimit:4;stroke-dasharray:none;stroke-opacity:1" /><path
     inkscape:connector-curvature="0"
     id="path4894"
     d="m 538.95429,-380.64883 60.6763,-0.33156"
     style="fill:none;fill-rule:evenodd;stroke:#000000;stroke-width:7;stroke-linecap:round;stroke-linejoin:miter;stroke-miterlimit:4;stroke-dasharray:none;stroke-opacity:1" /></g></svg>